PathFileType	4	(X/Y/Z)	c:/Users/goper/Files/vsCode/490R/osim_files/C03/C03_Slow_02.trc
DataRate	CameraRate	NumFrames	NumMarkers	Units                	OrigDataRate	OrigDataStartFrame	OrigNumFrames
250.00	250.00	6	36	mm	250.0	2161	3456
                Frame#	Time	LPSIS			LASIS			LTH1			LTH2			LTH3			LTH4			LLFE			LMFE			LSH1			LSH2			LSH3			LSH4			LLMAL			LMMAL			LCAL			LMTP5			LTOE			LMTP1			RPSIS			RASIS			RTH1			RTH2			RTH3			RTH4			RLFE			RMFE			RSH1			RSH2			RSH3			RSH4			RLMAL			RMMAL			RCAL			RMTP1			RTOE			RMTP5		
		X1	Y1	Z1	X2	Y2	Z2	X3	Y3	Z3	X4	Y4	Z4	X5	Y5	Z5	X6	Y6	Z6	X7	Y7	Z7	X8	Y8	Z8	X9	Y9	Z9	X10	Y10	Z10	X11	Y11	Z11	X12	Y12	Z12	X13	Y13	Z13	X14	Y14	Z14	X15	Y15	Z15	X16	Y16	Z16	X17	Y17	Z17	X18	Y18	Z18	X19	Y19	Z19	X20	Y20	Z20	X21	Y21	Z21	X22	Y22	Z22	X23	Y23	Z23	X24	Y24	Z24	X25	Y25	Z25	X26	Y26	Z26	X27	Y27	Z27	X28	Y28	Z28	X29	Y29	Z29	X30	Y30	Z30	X31	Y31	Z31	X32	Y32	Z32	X33	Y33	Z33	X34	Y34	Z34	X35	Y35	Z35	X36	Y36	Z36

2161	8.64000	205.36415	1024.26575	297.52322	28.64825	966.22626	335.21219	129.98328	609.94373	380.60773	119.73148	548.82513	377.22498	56.57357	616.61969	394.39441	55.40717	555.07501	388.79779	106.70273	474.44037	381.29880	83.59870	451.55923	272.89789	281.08545	410.09351	368.94839	314.33438	376.88687	365.69995	244.34785	367.01572	390.51685	283.08508	339.94769	384.80054	415.47717	249.37447	356.25433	385.96576	225.53624	284.86380	459.30392	299.33023	309.10858	450.31332	103.52039	376.83707	414.14005	75.82914	330.90805	425.35104	93.17767	287.14917	198.02875	1025.72144	184.43791	25.20191	988.21637	131.29498	113.52895	601.30408	113.55713	107.71194	540.87317	127.83742	53.82657	607.91559	94.07224	35.49739	548.73218	105.13165	30.34696	480.45819	125.83998	52.30061	496.76300	236.60573	89.88756	284.40900	125.23196	78.10629	238.18065	129.91159	28.42608	290.24286	115.57330	27.61644	246.60751	121.55993	12.38508	97.45741	156.01714	-6.34943	106.35783	235.90448	71.69331	63.77724	204.62759	-134.39021	58.69127	242.81744	-156.80191	74.51528	203.28102	-106.98003	39.10119	140.14249
2162	8.64400	201.28587	1024.41138	297.09961	24.54425	966.66699	334.87204	121.60104	610.02948	379.94424	110.75089	549.07751	376.31195	48.43620	617.44080	393.92130	46.73290	555.98041	388.27432	97.03977	475.13263	380.68112	74.02800	452.37329	272.13242	271.11597	410.65918	368.73053	304.47815	377.49634	365.53238	234.38701	367.50003	390.09662	273.11459	340.45670	384.45328	405.99432	250.95500	355.82642	376.38229	226.29074	284.57651	449.19440	300.98782	308.15262	442.08246	105.58167	377.22253	406.29828	77.20705	331.56311	417.21231	94.40057	287.57877	193.99504	1026.04626	184.05353	20.98771	988.67438	130.88077	111.21051	601.96094	113.38750	105.60687	541.56549	127.77463	49.07704	607.75873	93.65955	33.27640	548.90503	104.93121	28.51079	480.68466	125.67436	50.15731	497.07135	236.50111	89.10617	284.77274	125.39664	77.15121	238.37962	130.39400	27.65358	290.30017	115.51634	27.07538	246.68340	121.56089	12.24649	97.51530	156.12358	-6.53241	106.29422	235.95598	71.67769	63.81648	204.62766	-134.45688	58.41471	242.91159	-156.82785	74.17948	203.43657	-107.04657	39.07559	140.15869
2163	8.64800	197.22221	1024.57190	296.72696	20.44234	967.11053	334.55441	113.29588	610.28937	379.17642	101.92711	549.46094	375.54922	40.21022	618.29028	393.41058	37.95914	556.85114	387.76428	87.38962	475.82996	380.08194	64.55527	453.21945	271.43417	261.30072	411.32233	368.53250	294.57584	378.10410	365.41544	224.39407	368.04431	389.64612	263.19415	341.07681	384.05988	396.37671	252.41936	355.35498	367.10147	227.42349	284.12259	439.16327	302.44055	307.35843	433.39365	107.34455	377.60147	397.78015	78.42976	332.09793	408.53720	95.45997	288.02502	189.83318	1026.31128	183.71992	16.93474	989.11505	130.44661	108.65898	602.50970	113.32844	103.37077	542.10980	127.73746	47.20688	608.00604	93.45647	30.99762	549.17883	104.74268	26.25278	480.76929	124.93740	48.38901	497.36011	236.42467	88.31508	285.09866	125.64777	77.06460	239.27728	130.65083	26.86995	290.35785	115.50886	26.36299	246.76083	121.60758	12.13582	97.54852	156.23726	-6.69605	106.24991	236.05980	71.64051	63.87728	204.66524	-134.49213	58.16870	243.03233	-156.94846	73.87527	203.55583	-107.07958	39.03958	140.19209
2164	8.65200	193.10410	1024.71326	296.33893	16.07724	967.59912	334.31879	104.98322	610.61932	378.48074	93.25609	549.87531	375.07233	33.31804	619.64832	392.92642	29.24041	557.84418	387.17844	77.77866	476.65326	379.38043	55.04045	454.14438	270.69876	251.50615	411.99280	368.24197	284.84277	378.85226	365.17490	214.55373	368.68872	389.14630	253.37344	341.72260	383.59195	386.72400	253.69939	354.97540	357.41623	228.09363	283.84445	429.24988	303.66626	306.65381	424.29156	108.91483	377.94894	388.99026	79.52451	332.62009	399.69632	96.48212	288.50296	185.76973	1026.60107	183.34909	12.86649	989.43817	130.14304	106.16936	603.13220	113.19593	101.64139	542.72565	127.69157	44.49458	608.64087	93.54023	28.92540	548.96582	104.05279	24.38492	480.76889	124.84635	46.09977	497.66708	236.32704	87.51131	285.45529	125.77358	76.39870	239.62234	130.85367	25.97745	290.39777	115.46267	25.70409	246.80756	121.59757	12.02373	97.61040	156.31482	-6.85759	106.20130	236.13425	71.58699	63.89532	204.69554	-134.52493	57.95144	243.12129	-157.04781	73.62330	203.64421	-107.18593	39.01277	140.24698
2165	8.65600	188.92978	1024.85791	295.93988	11.87223	968.15210	334.01862	96.68679	610.92572	377.73590	84.34930	550.36066	374.12094	25.22831	620.69464	392.36810	20.46738	558.86182	386.61090	68.18233	477.48578	378.75696	45.52390	455.19153	270.00159	241.81929	412.82443	367.94061	275.10364	379.62485	364.90158	204.78802	369.42670	388.55630	243.59912	342.40030	383.12415	376.94669	254.75578	354.55377	347.96954	229.04828	283.49808	419.37964	304.63928	306.04611	414.67264	110.18487	378.21533	379.56161	80.46214	333.03046	390.25153	97.17438	288.80621	181.72995	1026.86304	183.03648	8.78780	989.85345	129.77570	103.74805	603.70447	113.09150	99.49786	543.29590	127.65582	41.99912	608.99292	93.41914	26.74487	549.20538	104.04575	22.74264	481.02939	124.75167	45.32521	498.03036	235.78766	86.68320	285.83240	125.90944	75.77701	239.93152	131.07025	25.17758	290.41763	115.41260	25.28169	246.71191	121.38719	11.92368	97.63440	156.41063	-7.00304	106.14259	236.19684	71.54339	63.91550	204.71896	-134.60480	57.74184	243.20618	-157.11974	73.37835	203.69795	-107.20169	38.96079	140.33731
2166	8.66000	185.30310	1025.30005	295.41119	7.84583	968.50256	333.82532	88.43313	611.38330	376.99985	75.81124	550.95715	373.37494	17.18080	621.74689	391.80603	11.78979	559.90344	386.06757	58.77127	478.40671	378.06592	36.29164	456.07867	269.13071	232.19548	413.58395	367.51370	265.61234	380.48853	364.42395	194.98810	370.23532	388.02487	233.82385	343.19058	382.54605	367.21130	255.73505	354.18805	338.11621	229.86180	283.13950	409.68704	305.38101	305.63226	404.73672	111.23884	378.50485	369.64227	81.43266	333.35822	380.45941	97.97742	289.09268	177.69350	1027.17200	182.71245	4.81797	990.26147	129.34622	101.26427	604.26111	112.95432	96.92829	543.90747	127.63809	39.53193	609.21844	93.31055	24.45637	549.40045	104.16241	21.06743	481.16492	124.64473	42.06566	498.24661	236.02194	85.91866	286.19003	126.07342	75.17176	240.21118	131.23122	24.41095	290.49271	115.39118	24.41956	246.71205	121.56065	11.80589	97.66124	156.51370	-7.14272	106.11207	236.29269	71.46465	63.91514	204.76947	-134.64690	57.57450	243.23199	-157.26717	73.16072	203.76152	-107.24997	38.96445	140.28911
